<svg data-v-fde0c5aa="" xmlns="http://www.w3.org/2000/svg" viewBox="0 0 300 300" class="iconLeft"><!----><defs data-v-fde0c5aa=""><!----></defs><rect data-v-fde0c5aa="" fill="transparent" x="0" y="0" width="300px" height="300px" class="logo-background-square"></rect><defs data-v-fde0c5aa=""><!----></defs><g data-v-fde0c5aa="" id="ce48ccfc-f223-4cc6-8b94-26fb15950fd4" fill="#000000" transform="matrix(2.8957124845169733,0,0,2.8957124845169733,92.42512420292609,126.47233537290792)"><path d="M5.60 5.42L5.63 6.41L5.63 6.41Q6.45 4.65 7.46 4.66L7.46 4.66L7.46 4.66Q8.47 4.67 8.36 6.88L8.36 6.88L8.36 6.88Q8.34 10.78 8.39 11.50L8.39 11.50L8.39 11.50Q8.44 12.22 9.02 12.74L9.02 12.74L10.12 11.56L10.05 11.33L10.05 11.33Q9.36 12.04 9.37 10.04L9.37 10.04L9.39 6.15L9.39 6.15Q9.42 4.08 8.57 3.68L8.57 3.68L8.57 3.68Q7.72 3.29 7.08 3.81L7.08 3.81L7.08 3.81Q6.45 4.33 6.17 4.66L6.17 4.66L6.17 4.66Q5.89 4.98 5.60 5.42L5.60 5.42ZM1.59 3.67L0.29 4.94L0.37 5.17L0.37 5.17Q1.00 4.62 1.01 6.49L1.01 6.49L1.01 6.49Q0.94 10.86 1.03 11.52L1.03 11.52L1.03 11.52Q1.12 12.19 1.70 12.71L1.70 12.71L2.76 11.67L2.76 11.42L2.76 11.42Q2.19 11.54 2.11 10.31L2.11 10.31L2.11 10.31Q2.03 9.07 2.11 6.28L2.11 6.28L2.11 6.28Q2.83 4.65 3.84 4.66L3.84 4.66L3.84 4.66Q4.85 4.67 4.76 6.61L4.76 6.61L4.76 6.61Q4.72 10.78 4.76 11.50L4.76 11.50L4.76 11.50Q4.81 12.22 5.39 12.74L5.39 12.74L6.50 11.56L6.43 11.33L6.43 11.33Q5.74 12.04 5.77 8.80L5.77 8.80L5.77 8.80Q5.80 5.56 5.67 4.88L5.67 4.88L5.67 4.88Q5.54 4.20 4.82 3.74L4.82 3.74L4.82 3.74Q4.09 3.29 3.46 3.81L3.46 3.81L3.46 3.81Q2.82 4.33 2.54 4.66L2.54 4.66L2.54 4.66Q2.26 4.98 2.08 5.29L2.08 5.29L2.08 5.29Q2.14 4.05 1.59 3.67L1.59 3.67ZM13.34 6.45L13.34 6.45Q12.19 7.21 11.71 7.77L11.71 7.77L11.71 7.77Q11.24 8.33 11.05 8.89L11.05 8.89L11.05 8.89Q10.86 9.46 10.98 10.32L10.98 10.32L10.98 10.32Q11.11 11.17 11.98 11.96L11.98 11.96L11.98 11.96Q12.84 12.75 13.36 12.75L13.36 12.75L13.36 12.75Q13.88 12.76 15.00 11.73L15.00 11.73L15.00 11.73Q15.43 11.34 15.82 10.82L15.82 10.82L15.82 10.82Q16.21 10.31 16.33 9.74L16.33 9.74L16.33 9.74Q16.44 9.17 16.27 8.50L16.27 8.50L16.27 8.50Q16.09 7.83 15.29 7.04L15.29 7.04L15.29 7.04Q14.48 6.25 13.34 6.45L13.34 6.45ZM12.97 7.26L12.97 7.26L12.97 7.26Q13.76 7.08 14.70 8.24L14.70 8.24L14.70 8.24Q15.63 9.41 15.44 10.23L15.44 10.23L15.44 10.23Q15.24 11.06 14.58 11.56L14.58 11.56L14.58 11.56Q13.92 12.05 13.19 11.45L13.19 11.45L13.19 11.45Q12.45 10.84 12.01 10.15L12.01 10.15L12.01 10.15Q11.57 9.46 11.88 8.45L11.88 8.45L11.88 8.45Q12.19 7.43 12.97 7.26ZM21.74 3.49L21.74 3.49L20.77 4.12L20.77 4.12Q21.20 4.92 21.12 6.83L21.12 6.83L21.12 6.83Q20.56 6.51 20.13 6.55L20.13 6.55L20.13 6.55Q19.69 6.58 19.09 6.83L19.09 6.83L19.09 6.83Q18.48 7.09 17.86 7.69L17.86 7.69L17.86 7.69Q17.24 8.30 17.05 9.34L17.05 9.34L17.05 9.34Q16.86 10.39 17.58 11.52L17.58 11.52L17.58 11.52Q18.29 12.65 19.00 12.71L19.00 12.71L19.00 12.71Q19.71 12.78 21.16 11.28L21.16 11.28L21.16 11.28Q21.16 12.25 21.59 12.75L21.59 12.75L22.58 11.96L22.58 11.96Q22.03 11.50 22.15 7.76L22.15 7.76L22.15 7.76Q22.26 4.01 21.74 3.49ZM19.30 7.35L19.30 7.35L19.30 7.35Q20.46 7.18 20.79 8.34L20.79 8.34L21.12 8.05L21.11 10.73L21.11 10.73Q20.86 11.29 20.16 11.67L20.16 11.67L20.16 11.67Q19.46 12.04 18.69 10.87L18.69 10.87L18.69 10.87Q17.91 9.69 18.03 8.60L18.03 8.60L18.03 8.60Q18.14 7.51 19.30 7.35ZM25.83 6.54L25.83 6.54L25.83 6.54Q24.81 6.56 23.97 7.23L23.97 7.23L23.97 7.23Q23.13 7.90 23.55 8.74L23.55 8.74L24.66 8.07L24.66 8.07Q24.45 6.90 25.87 7.03L25.87 7.03L25.87 7.03Q27.30 7.15 27.11 8.89L27.11 8.89L27.11 8.89Q26.00 8.39 25.13 8.61L25.13 8.61L25.13 8.61Q24.25 8.82 23.51 9.71L23.51 9.71L23.51 9.71Q22.92 10.58 23.14 11.18L23.14 11.18L23.14 11.18Q23.35 11.79 23.83 12.23L23.83 12.23L23.83 12.23Q24.32 12.67 24.91 12.71L24.91 12.71L24.91 12.71Q25.51 12.76 25.92 12.48L25.92 12.48L25.92 12.48Q26.33 12.20 27.13 11.49L27.13 11.49L27.13 11.49Q27.19 12.36 27.69 12.76L27.69 12.76L28.80 11.80L28.71 11.64L28.71 11.64Q28.14 12.10 28.08 10.58L28.08 10.58L28.09 8.14L28.09 8.14Q28.05 7.23 27.45 6.88L27.45 6.88L27.45 6.88Q26.85 6.53 25.83 6.54ZM26.81 9.84L26.81 9.84L27.08 9.47L27.09 11.08L27.09 11.08Q26.22 11.95 25.60 11.90L25.60 11.90L25.60 11.90Q24.98 11.85 24.55 11.48L24.55 11.48L24.55 11.48Q24.13 11.12 23.94 10.64L23.94 10.64L23.94 10.64Q23.75 10.17 24.01 9.71L24.01 9.71L24.01 9.71Q24.28 9.26 25.07 9.19L25.07 9.19L25.07 9.19Q25.85 9.11 26.81 9.84ZM30.74 3.50L29.29 4.78L29.37 4.93L29.37 4.93Q30.00 4.50 30.10 5.69L30.10 5.69L30.08 10.02L30.08 10.02Q30.09 11.20 30.57 11.92L30.57 11.92L30.57 11.92Q31.04 12.64 32.03 12.71L32.03 12.71L32.03 12.71Q33.02 12.78 33.70 12.30L33.70 12.30L33.70 12.30Q34.38 11.83 34.87 11.17L34.87 11.17L34.87 11.17Q35.35 10.51 35.73 9.52L35.73 9.52L35.73 9.52Q36.11 8.53 36.04 6.97L36.04 6.97L36.04 6.97Q35.96 5.41 35.03 4.46L35.03 4.46L35.03 4.46Q34.09 3.52 33.10 3.50L33.10 3.50L31.32 4.92L31.32 4.92Q31.21 3.93 30.74 3.50L30.74 3.50ZM32.45 4.78L32.45 4.78L32.45 4.78Q33.20 4.49 34.04 5.27L34.04 5.27L34.04 5.27Q34.88 6.05 34.97 7.96L34.97 7.96L34.97 7.96Q35.05 9.87 34.68 10.63L34.68 10.63L34.68 10.63Q34.30 11.38 33.65 11.75L33.65 11.75L33.65 11.75Q33.00 12.11 32.16 11.71L32.16 11.71L32.16 11.71Q31.32 11.31 31.29 9.63L31.29 9.63L31.29 5.56L31.29 5.56Q31.70 5.07 32.45 4.78ZM39.80 6.60L39.80 6.60L39.80 6.60Q38.73 6.43 37.80 7.26L37.80 7.26L37.80 7.26Q36.87 8.09 36.61 9.20L36.61 9.20L36.61 9.20Q36.35 10.31 36.77 11.26L36.77 11.26L36.77 11.26Q37.19 12.22 38.34 12.62L38.34 12.62L38.34 12.62Q39.27 12.93 40.27 12.18L40.27 12.18L40.27 12.18Q41.28 11.43 41.38 10.84L41.38 10.84L41.18 10.68L41.18 10.68Q40.36 11.85 39.58 11.81L39.58 11.81L39.58 11.81Q38.80 11.76 38.41 11.46L38.41 11.46L38.41 11.46Q38.03 11.15 37.82 10.80L37.82 10.80L39.71 9.54L39.71 9.54Q41.15 8.65 41.01 7.70L41.01 7.70L41.01 7.70Q40.87 6.76 39.80 6.60ZM37.37 8.75L37.37 8.75L37.37 8.75Q37.37 8.12 37.88 7.58L37.88 7.58L37.88 7.58Q38.38 7.04 38.98 7.19L38.98 7.19L38.98 7.19Q39.58 7.34 39.82 8.00L39.82 8.00L39.82 8.00Q40.05 8.67 39.76 9.02L39.76 9.02L39.76 9.02Q39.46 9.37 37.64 10.40L37.64 10.40L37.64 10.40Q37.48 10.04 37.42 9.71L37.42 9.71L37.42 9.71Q37.36 9.37 37.37 8.75ZM44.65 6.65L44.65 6.65L44.65 6.65Q44.26 6.80 43.93 7.02L43.93 7.02L43.93 7.02Q43.59 7.23 43.24 7.52L43.24 7.52L43.24 7.52Q40.95 9.38 42.55 11.66L42.55 11.66L42.55 11.66Q43.00 12.21 43.47 12.45L43.47 12.45L43.47 12.45Q43.93 12.69 44.58 12.70L44.58 12.70L44.58 12.70Q45.23 12.70 45.85 12.05L45.85 12.05L45.85 12.05Q46.48 11.40 46.92 10.75L46.92 10.75L46.70 10.55L46.70 10.55Q46.53 10.78 46.27 11.06L46.27 11.06L46.27 11.06Q46.00 11.35 45.60 11.52L45.60 11.52L45.60 11.52Q45.21 11.70 44.71 11.63L44.71 11.63L44.71 11.63Q44.21 11.57 43.71 11.10L43.71 11.10L43.71 11.10Q43.22 10.62 42.91 9.71L42.91 9.71L42.91 9.71Q42.60 8.80 42.95 8.27L42.95 8.27L42.95 8.27Q43.31 7.75 43.97 7.57L43.97 7.57L43.97 7.57Q44.63 7.40 45.08 7.63L45.08 7.63L45.08 7.63Q45.53 7.86 45.94 8.63L45.94 8.63L46.74 7.96L46.74 7.96Q46.61 7.42 46.23 7.05L46.23 7.05L46.23 7.05Q45.86 6.69 45.45 6.59L45.45 6.59L45.45 6.59Q45.03 6.49 44.65 6.65ZM49.98 6.45L49.98 6.45Q48.84 7.21 48.36 7.77L48.36 7.77L48.36 7.77Q47.89 8.33 47.69 8.89L47.69 8.89L47.69 8.89Q47.50 9.46 47.63 10.32L47.63 10.32L47.63 10.32Q47.76 11.17 48.62 11.96L48.62 11.96L48.62 11.96Q49.49 12.75 50.01 12.75L50.01 12.75L50.01 12.75Q50.53 12.76 51.65 11.73L51.65 11.73L51.65 11.73Q52.08 11.34 52.47 10.82L52.47 10.82L52.47 10.82Q52.86 10.31 52.98 9.74L52.98 9.74L52.98 9.74Q53.09 9.17 52.91 8.50L52.91 8.50L52.91 8.50Q52.74 7.83 51.93 7.04L51.93 7.04L51.93 7.04Q51.13 6.25 49.98 6.45L49.98 6.45ZM49.62 7.26L49.62 7.26L49.62 7.26Q50.41 7.08 51.34 8.24L51.34 8.24L51.34 8.24Q52.28 9.41 52.08 10.23L52.08 10.23L52.08 10.23Q51.88 11.06 51.23 11.56L51.23 11.56L51.23 11.56Q50.57 12.05 49.83 11.45L49.83 11.45L49.83 11.45Q49.10 10.84 48.66 10.15L48.66 10.15L48.66 10.15Q48.22 9.46 48.53 8.45L48.53 8.45L48.53 8.45Q48.84 7.43 49.62 7.26ZM54.63 6.46L53.42 7.35L53.53 7.52L53.53 7.52Q54.11 7.06 54.12 8.50L54.12 8.50L54.12 8.50Q54.05 11.46 54.14 11.91L54.14 11.91L54.14 11.91Q54.23 12.37 54.86 12.71L54.86 12.71L55.92 11.87L55.84 11.75L55.84 11.75Q55.30 11.96 55.19 11.08L55.19 11.08L55.19 11.08Q55.09 10.19 55.17 8.11L55.17 8.11L55.17 8.11Q56.18 6.60 57.00 8.12L57.00 8.12L57.87 7.42L57.87 7.42Q57.59 6.74 57.13 6.57L57.13 6.57L57.13 6.57Q56.68 6.39 56.24 6.58L56.24 6.58L56.24 6.58Q55.81 6.76 55.10 7.66L55.10 7.66L55.10 7.66Q55.16 6.82 54.63 6.46L54.63 6.46Z"></path></g><defs data-v-fde0c5aa=""><linearGradient data-v-fde0c5aa="" gradientTransform="rotate(25)" id="27d007c7-86fc-4fe2-9a66-6a106e5b2c45" x1="0%" y1="0%" x2="100%" y2="0%"><stop data-v-fde0c5aa="" offset="0%" stop-color="#01695A" stop-opacity="1"></stop><stop data-v-fde0c5aa="" offset="100%" stop-color="#2CC26F" stop-opacity="1"></stop></linearGradient></defs><g data-v-fde0c5aa="" id="682c647d-fb62-4862-a752-96dcdf49c087" stroke="none" fill="url(#27d007c7-86fc-4fe2-9a66-6a106e5b2c45)" transform="matrix(0.4194258425580339,0,0,0.4194258425580339,39.16114831488393,129.0287062721157)"><path d="M14 26.08V17A15 15 0 0 1 29 2h42a15 15 0 0 1 15 15v9.08A19.51 19.51 0 0 0 68 45.5V53H32v-7.5a19.51 19.51 0 0 0-18-19.42zM98 45.5a10.5 10.5 0 0 0-21 0V62H23V45.5a10.5 10.5 0 0 0-21 0v24A13.5 13.5 0 0 0 15.5 83H17v7.5a7.5 7.5 0 0 0 15 0V83h36v7.5a7.5 7.5 0 0 0 15 0V83h1.5A13.5 13.5 0 0 0 98 69.5z"></path></g><!----></svg>